# xmcd
#
# Track frame offsets:
#	150
#	19752
#	35460
#	52327
#	56950
#	74099
#	91986
#	104749
#	119662
#	137011
#	155833
#	175476
#
# Disc length: 2571 seconds
#
# Revision: 65538
# Processed by: cddbd v1.5.2PL0 Copyright (c) Steve Scherf et al.
# Submitted via: EZCDAudioConverter 8.2.2.1
#
DISCID=c10a090c
DTITLE=Zac Brown Band - The Foundation
DYEAR=2008
DGENRE=Country
TTITLE0=Toes
TTITLE1=Whatever It Is
TTITLE2=Where The Boat Leaves From
TTITLE3=Violin Intro To Free
TTITLE4=Free
TTITLE5=Chicken Fried
TTITLE6=Mary
TTITLE7=Different Kind Of Fine
TTITLE8=Highway 20 Ride
TTITLE9=It's Not Ok
TTITLE10=Jolene
TTITLE11=Sic 'em On A Chicken
EXTD=
EXTT0=
EXTT1=
EXTT2=
EXTT3=
EXTT4=
EXTT5=
EXTT6=
EXTT7=
EXTT8=
EXTT9=
EXTT10=
EXTT11=
PLAYORDER=
